<?xml version="1.0" standalone="no"?>
<!DOCTYPE svg PUBLIC "-//W3C//DTD SVG 20010904//EN"
 "http://www.w3.org/TR/2001/REC-SVG-20010904/DTD/svg10.dtd">
<svg version="1.0" xmlns="http://www.w3.org/2000/svg"
 width="1024.000000pt" height="308.000000pt" viewBox="0 0 1024.000000 308.000000"
 preserveAspectRatio="xMidYMid meet">

<g transform="translate(0.000000,308.000000) scale(0.100000,-0.100000)"
fill="#000000" stroke="none">
<path d="M1673 2955 c-295 -53 -537 -238 -662 -507 -68 -144 -81 -213 -91
-478 -6 -146 -15 -261 -25 -305 -52 -230 -56 -334 -15 -453 29 -84 105 -167
197 -215 89 -46 254 -80 380 -79 l92 1 -10 -29 c-6 -15 -25 -43 -43 -62 -40
-41 -160 -108 -193 -108 -42 0 -170 -60 -215 -100 l-43 -39 43 -1 c55 0 120
-33 308 -156 467 -306 737 -350 956 -154 65 57 152 181 169 241 12 39 12 40
-25 78 -35 35 -171 109 -182 99 -2 -3 1 -19 7 -37 25 -73 -35 -215 -117 -278
-36 -27 -42 -28 -143 -27 -97 0 -112 3 -174 32 -96 44 -215 118 -353 218 -143
104 -150 109 -101 89 21 -9 37 -11 37 -5 0 5 6 10 13 10 6 1 30 9 52 20 22 11
49 20 60 20 11 0 31 7 43 14 21 11 36 8 130 -27 169 -62 272 -61 327 4 28 35
33 84 11 127 -7 15 -17 38 -21 51 l-7 24 70 -6 c206 -20 406 73 479 222 25 50
28 66 27 151 -1 66 -9 125 -26 195 -14 55 -29 114 -33 130 -7 27 -9 23 -21
-39 -14 -75 -59 -178 -118 -268 -47 -74 -208 -243 -265 -280 -91 -57 -222 -33
-400 74 -108 65 -124 79 -44 39 34 -17 64 -31 67 -31 2 0 -8 13 -22 28 -67 69
-89 103 -168 258 -73 144 -92 196 -100 279 -5 47 -3 69 11 94 9 18 14 40 10
49 -3 10 10 -2 30 -26 21 -23 56 -52 79 -64 l41 -21 -58 54 c-31 30 -57 63
-57 73 0 28 18 55 48 70 l28 14 -4 -64 c-4 -62 -3 -65 31 -99 27 -27 43 -35
71 -35 76 0 126 49 129 125 2 40 3 42 19 28 9 -8 20 -28 23 -44 7 -31 25 -50
25 -26 0 26 -23 82 -48 115 -41 55 -103 84 -178 86 -35 0 -64 3 -64 6 0 3 13
14 29 25 16 10 27 23 25 27 -3 4 0 16 6 27 8 16 6 21 -8 25 -9 3 30 4 88 2 58
-2 117 -9 132 -15 15 -5 30 -6 33 -2 12 20 -12 45 -67 70 l-59 27 98 53 c190
103 308 194 364 281 38 58 45 57 125 -26 55 -58 102 -139 127 -219 18 -56 33
-173 18 -140 -19 44 -50 60 -115 59 -65 -1 -111 -19 -146 -56 -31 -33 -11 -39
59 -18 118 37 206 19 213 -44 l4 -31 13 30 c78 184 42 363 -111 552 -33 40
-63 66 -85 74 -19 6 -39 22 -47 37 -22 42 -64 77 -146 119 -176 93 -351 122
-537 88z m163 -1046 c3 -6 2 -15 -2 -19 -12 -12 -38 5 -30 19 9 14 23 14 32 0z
m-601 -767 c33 -26 25 -29 -12 -5 -14 9 -32 32 -39 50 -21 49 -16 64 5 17 10
-22 31 -50 46 -62z m29 62 c3 -8 2 -12 -4 -9 -6 3 -10 10 -10 16 0 14 7 11 14
-7z"/>
<path d="M7300 1470 l0 -670 105 0 105 0 0 670 0 670 -105 0 -105 0 0 -670z"/>
<path d="M2365 1980 c-60 -30 -98 -83 -103 -145 -4 -45 -1 -54 26 -83 67 -72
172 -10 172 103 0 25 -7 60 -16 77 l-16 31 29 -7 c15 -4 38 -17 51 -28 37 -36
27 -122 -21 -178 -12 -14 -6 -11 12 7 28 25 35 40 39 83 3 35 10 53 21 57 19
7 50 43 51 59 0 7 -10 9 -25 7 -15 -3 -34 3 -51 16 -35 28 -114 28 -169 1z
m55 -81 c0 -25 -33 -22 -38 4 -2 12 3 17 17 17 15 0 21 -6 21 -21z"/>
<path d="M8967 1710 c-172 -31 -282 -128 -303 -267 l-7 -43 91 0 90 0 7 30
c10 44 49 86 100 105 62 24 183 18 222 -11 40 -30 64 -76 66 -126 l2 -43 -165
-12 c-219 -17 -285 -37 -354 -106 -62 -62 -81 -116 -74 -210 9 -106 57 -175
153 -219 40 -18 68 -22 140 -23 133 0 222 36 280 114 25 34 35 26 35 -27 0
-70 4 -72 101 -72 l89 0 0 313 c0 344 -4 371 -60 460 -33 53 -100 100 -173
122 -63 19 -180 26 -240 15z m273 -538 c0 -142 -91 -232 -233 -232 -94 0 -150
44 -150 120 0 100 94 142 336 149 l47 1 0 -38z"/>
<path d="M7663 1678 c2 -7 82 -213 177 -458 95 -245 172 -453 172 -462 0 -10
-16 -48 -34 -85 -44 -90 -70 -103 -200 -103 l-98 0 0 -90 c0 -89 0 -90 28 -97
15 -5 72 -8 127 -8 93 0 104 2 155 31 39 22 67 48 96 91 35 51 187 417 475
1146 l19 48 -111 -3 -110 -3 -119 -318 c-65 -175 -120 -321 -123 -323 -2 -3
-37 89 -78 203 -40 114 -91 260 -114 323 l-40 115 -114 3 c-89 2 -112 0 -108
-10z"/>
<path d="M2070 1478 c13 -11 35 -18 49 -16 34 4 24 23 -11 22 -16 -1 -28 1
-28 5 0 4 -7 8 -17 8 -13 0 -11 -4 7 -19z"/>
<path d="M2229 1483 c-13 -16 -12 -17 4 -4 9 7 17 15 17 17 0 8 -8 3 -21 -13z"/>
<path d="M1860 1392 c0 -28 195 -102 272 -102 44 0 122 26 141 48 14 16 5 17
-141 18 -152 1 -172 4 -254 39 -10 4 -18 3 -18 -3z"/>
</g>
</svg>
